<svg width="268" height="268" viewBox="0 0 268 268" fill="none" xmlns="http://www.w3.org/2000/svg">
<path d="M143.871 28.274C140.007 20.971 127.992 20.971 124.128 28.274L23.628 218.107C22.7234 219.809 22.2749 221.716 22.3262 223.642C22.3776 225.568 22.9271 227.448 23.9212 229.099C24.9153 230.75 26.3201 232.115 27.9986 233.062C29.6772 234.008 31.5724 234.504 33.4994 234.5H234.499C236.425 234.504 238.319 234.009 239.996 233.063C241.674 232.117 243.077 230.753 244.071 229.103C245.064 227.453 245.612 225.574 245.663 223.649C245.714 221.724 245.264 219.818 244.36 218.119L143.871 28.274ZM145.166 201H122.833V178.667H145.166V201ZM122.833 156.333V100.5H145.166L145.177 156.333H122.833Z" fill="black"/>
</svg>
